<svg width="132" height="44" viewBox="0 0 132 44" fill="none" xmlns="http://www.w3.org/2000/svg">
<rect width="131.561" height="43.6008" rx="3" fill="#2498FF"/>
<path d="M10 16.7548H25.8389C25.8389 20.4854 22.8146 23.5096 19.0841 23.5096H10V16.7548Z" fill="white"/>
<path d="M10 26.846H25.8389C25.8389 30.5765 22.8146 33.6008 19.0841 33.6008H10V26.846Z" fill="white"/>
<path d="M41.5613 16.7548H25.8389C25.8389 13.0242 28.8631 10 32.5937 10H41.5613V16.7548Z" fill="white"/>
<path d="M41.5613 26.8963H25.8389C25.8389 23.1657 28.8631 20.1414 32.5937 20.1414H41.5613V26.8963Z" fill="white"/>
<path d="M51.9171 13.5008H55.1331V20.7488H63.5091V13.5008H66.7491V30.3008H63.5091V23.4128H55.1331V30.3008H51.9171V13.5008ZM75.654 17.3888C76.982 17.3888 78.15 17.6608 79.158 18.2048C80.182 18.7488 80.974 19.5088 81.534 20.4848C82.11 21.4608 82.398 22.5968 82.398 23.8928C82.398 25.1888 82.11 26.3248 81.534 27.3008C80.974 28.2768 80.182 29.0448 79.158 29.6048C78.15 30.1488 76.982 30.4208 75.654 30.4208C74.31 30.4208 73.126 30.1488 72.102 29.6048C71.078 29.0448 70.278 28.2768 69.702 27.3008C69.142 26.3248 68.862 25.1888 68.862 23.8928C68.862 22.5968 69.142 21.4608 69.702 20.4848C70.278 19.5088 71.078 18.7488 72.102 18.2048C73.126 17.6608 74.31 17.3888 75.654 17.3888ZM75.654 19.9088C74.934 19.9088 74.294 20.0848 73.734 20.4368C73.19 20.7728 72.766 21.2448 72.462 21.8528C72.158 22.4448 72.006 23.1328 72.006 23.9168C72.006 24.7168 72.158 25.4208 72.462 26.0288C72.766 26.6368 73.19 27.1088 73.734 27.4448C74.294 27.7808 74.934 27.9488 75.654 27.9488C76.358 27.9488 76.982 27.7808 77.526 27.4448C78.07 27.1088 78.494 26.6368 78.798 26.0288C79.102 25.4208 79.254 24.7168 79.254 23.9168C79.254 23.1328 79.102 22.4448 78.798 21.8528C78.494 21.2448 78.07 20.7728 77.526 20.4368C76.982 20.0848 76.358 19.9088 75.654 19.9088ZM91.8763 20.2208C90.9803 20.1568 90.2043 20.2928 89.5483 20.6288C88.8923 20.9488 88.3883 21.4128 88.0363 22.0208C87.6843 22.6288 87.5083 23.3248 87.5083 24.1088L86.6683 24.0128C86.6683 22.5888 86.8763 21.3888 87.2923 20.4128C87.7083 19.4208 88.3083 18.6688 89.0923 18.1568C89.8763 17.6448 90.8043 17.3888 91.8763 17.3888V20.2208ZM84.3883 17.5088H87.5083V30.3008H84.3883V17.5088ZM98.22 17.3648C99.388 17.3648 100.38 17.6288 101.196 18.1568C102.012 18.6848 102.636 19.4368 103.068 20.4128C103.5 21.3728 103.708 22.5328 103.692 23.8928C103.708 25.2368 103.5 26.4048 103.068 27.3968C102.652 28.3728 102.036 29.1248 101.22 29.6528C100.404 30.1648 99.428 30.4208 98.292 30.4208C97.076 30.4208 96.004 30.1488 95.076 29.6048C94.164 29.0448 93.452 28.2688 92.94 27.2768C92.428 26.2848 92.172 25.1488 92.172 23.8688C92.172 22.5728 92.428 21.4368 92.94 20.4608C93.452 19.4848 94.156 18.7248 95.052 18.1808C95.964 17.6368 97.02 17.3648 98.22 17.3648ZM98.964 19.8848C98.26 19.8848 97.628 20.0608 97.068 20.4128C96.524 20.7648 96.1 21.2448 95.796 21.8528C95.492 22.4608 95.332 23.1568 95.316 23.9408C95.332 24.7248 95.492 25.4208 95.796 26.0288C96.1 26.6368 96.524 27.1168 97.068 27.4688C97.628 27.8048 98.26 27.9728 98.964 27.9728C99.684 27.9728 100.316 27.8048 100.86 27.4688C101.42 27.1168 101.852 26.6368 102.156 26.0288C102.46 25.4208 102.612 24.7248 102.612 23.9408C102.612 23.1408 102.46 22.4448 102.156 21.8528C101.852 21.2448 101.42 20.7648 100.86 20.4128C100.316 20.0608 99.684 19.8848 98.964 19.8848ZM102.612 12.4928H105.732V30.3008H102.612V12.4928ZM117.675 22.9328C117.643 22.2608 117.491 21.6928 117.219 21.2288C116.947 20.7488 116.563 20.3808 116.067 20.1248C115.587 19.8528 115.035 19.7168 114.411 19.7168C113.691 19.7168 113.067 19.8848 112.539 20.2208C112.011 20.5568 111.595 21.0288 111.291 21.6368C111.003 22.2448 110.859 22.9488 110.859 23.7488C110.859 24.6288 111.019 25.3888 111.339 26.0288C111.675 26.6688 112.131 27.1648 112.707 27.5168C113.283 27.8528 113.947 28.0208 114.699 28.0208C116.059 28.0208 117.219 27.5328 118.179 26.5568L119.835 28.2128C119.195 28.9168 118.419 29.4608 117.507 29.8448C116.595 30.2288 115.579 30.4208 114.459 30.4208C113.115 30.4208 111.947 30.1488 110.955 29.6048C109.979 29.0448 109.211 28.2848 108.651 27.3248C108.107 26.3488 107.835 25.2128 107.835 23.9168C107.835 22.6208 108.107 21.4848 108.651 20.5088C109.211 19.5328 109.979 18.7728 110.955 18.2288C111.947 17.6848 113.083 17.4048 114.363 17.3888C115.883 17.3888 117.107 17.7008 118.035 18.3248C118.979 18.9488 119.651 19.8288 120.051 20.9648C120.451 22.0848 120.595 23.4208 120.483 24.9728H110.403V22.9328H117.675Z" fill="white"/>
</svg>
